# MagicaVoxel @ Ephtracy

# group
o 

# material
mtllib DoorBase.mtl
usemtl palette

# normals
vn -1 0 0
vn 1 0 0
vn 0 0 1
vn 0 0 -1
vn 0 -1 0
vn 0 1 0

# texcoords
vt 0.349609 0.5
vt 0.353516 0.5
vt 0.357422 0.5
vt 0.361328 0.5
vt 0.365234 0.5
vt 0.369141 0.5
vt 0.373047 0.5
vt 0.376953 0.5
vt 0.380859 0.5
vt 0.384766 0.5
vt 0.388672 0.5
vt 0.904297 0.5

# verts
v -0.6 0 0.6
v -0.6 0 0.5
v -0.6 0 0.4
v -0.6 0 0.3
v -0.6 0 0.2
v -0.6 0 0.1
v -0.6 0 -0.2
v -0.6 0 -0.3
v -0.6 0 -0.4
v -0.6 0 -0.5
v -0.6 0 -0.6
v -0.6 0.1 0.6
v -0.6 0.1 0.5
v -0.6 0.1 0.4
v -0.6 0.1 0.3
v -0.6 0.1 0.2
v -0.6 0.1 0.1
v -0.6 0.1 -0.2
v -0.6 0.1 -0.3
v -0.6 0.1 -0.4
v -0.6 0.1 -0.5
v -0.6 0.1 -0.6
v 0.6 0 0.6
v 0.6 0 0.5
v 0.6 0 0.4
v 0.6 0 0.3
v 0.6 0 0.2
v 0.6 0 0.1
v 0.6 0 5.96046e-08
v 0.6 0 -0.1
v 0.6 0 -0.3
v 0.6 0 -0.4
v 0.6 0 -0.5
v 0.6 0 -0.6
v 0.6 0.1 0.6
v 0.6 0.1 0.5
v 0.6 0.1 0.4
v 0.6 0.1 0.3
v 0.6 0.1 0.2
v 0.6 0.1 0.1
v 0.6 0.1 5.96046e-08
v 0.6 0.1 -0.1
v 0.6 0.1 -0.3
v 0.6 0.1 -0.4
v 0.6 0.1 -0.5
v 0.6 0.1 -0.6
v -0.6 0 0.6
v -0.6 0.1 0.6
v -0.5 0 0.6
v -0.5 0.1 0.6
v -0.4 0 0.6
v -0.4 0.1 0.6
v -0.3 0 0.6
v -0.3 0.1 0.6
v -0.2 0 0.6
v -0.2 0.1 0.6
v -0.1 0 0.6
v -0.1 0.1 0.6
v 0.1 0 0.6
v 0.1 0.1 0.6
v 0.2 0 0.6
v 0.2 0.1 0.6
v 0.3 0 0.6
v 0.3 0.1 0.6
v 0.4 0 0.6
v 0.4 0.1 0.6
v 0.5 0 0.6
v 0.5 0.1 0.6
v 0.6 0 0.6
v 0.6 0.1 0.6
v -0.6 0 -0.6
v -0.6 0.1 -0.6
v -0.5 0 -0.6
v -0.5 0.1 -0.6
v -0.4 0 -0.6
v -0.4 0.1 -0.6
v -0.3 0 -0.6
v -0.3 0.1 -0.6
v -0.2 0 -0.6
v -0.2 0.1 -0.6
v -0.1 0 -0.6
v -0.1 0.1 -0.6
v -5.96046e-08 0 -0.6
v -5.96046e-08 0.1 -0.6
v 0.1 0 -0.6
v 0.1 0.1 -0.6
v 0.2 0 -0.6
v 0.2 0.1 -0.6
v 0.3 0 -0.6
v 0.3 0.1 -0.6
v 0.4 0 -0.6
v 0.4 0.1 -0.6
v 0.5 0 -0.6
v 0.5 0.1 -0.6
v 0.6 0 -0.6
v 0.6 0.1 -0.6
v -0.6 0 0.6
v -0.5 0 0.6
v -0.4 0 0.6
v -0.3 0 0.6
v -0.2 0 0.6
v -0.1 0 0.6
v 0.1 0 0.6
v 0.2 0 0.6
v 0.3 0 0.6
v 0.4 0 0.6
v 0.5 0 0.6
v 0.6 0 0.6
v -0.6 0 0.5
v -0.5 0 0.5
v -0.4 0 0.5
v -0.3 0 0.5
v -0.2 0 0.5
v -0.1 0 0.5
v 0.1 0 0.5
v 0.2 0 0.5
v 0.3 0 0.5
v 0.4 0 0.5
v 0.5 0 0.5
v 0.6 0 0.5
v -0.6 0 0.4
v -0.5 0 0.4
v 0.5 0 0.4
v 0.6 0 0.4
v -0.6 0 0.3
v -0.5 0 0.3
v 0.5 0 0.3
v 0.6 0 0.3
v -0.6 0 0.2
v -0.5 0 0.2
v 0.5 0 0.2
v 0.6 0 0.2
v -0.6 0 0.1
v -0.5 0 0.1
v 0.5 0 0.1
v 0.6 0 0.1
v 0.5 0 5.96046e-08
v 0.6 0 5.96046e-08
v 0.5 0 -0.1
v 0.6 0 -0.1
v -0.6 0 -0.2
v -0.5 0 -0.2
v -0.6 0 -0.3
v -0.5 0 -0.3
v 0.5 0 -0.3
v 0.6 0 -0.3
v -0.6 0 -0.4
v -0.5 0 -0.4
v 0.5 0 -0.4
v 0.6 0 -0.4
v -0.6 0 -0.5
v -0.5 0 -0.5
v -0.4 0 -0.5
v -0.3 0 -0.5
v -0.2 0 -0.5
v -0.1 0 -0.5
v -5.96046e-08 0 -0.5
v 0.1 0 -0.5
v 0.2 0 -0.5
v 0.3 0 -0.5
v 0.4 0 -0.5
v 0.5 0 -0.5
v 0.6 0 -0.5
v -0.6 0 -0.6
v -0.5 0 -0.6
v -0.4 0 -0.6
v -0.3 0 -0.6
v -0.2 0 -0.6
v -0.1 0 -0.6
v -5.96046e-08 0 -0.6
v 0.1 0 -0.6
v 0.2 0 -0.6
v 0.3 0 -0.6
v 0.4 0 -0.6
v 0.5 0 -0.6
v 0.6 0 -0.6
v -0.6 0.1 0.6
v -0.5 0.1 0.6
v -0.4 0.1 0.6
v -0.3 0.1 0.6
v -0.2 0.1 0.6
v -0.1 0.1 0.6
v 0.1 0.1 0.6
v 0.2 0.1 0.6
v 0.3 0.1 0.6
v 0.4 0.1 0.6
v 0.5 0.1 0.6
v 0.6 0.1 0.6
v -0.6 0.1 0.5
v -0.5 0.1 0.5
v -0.4 0.1 0.5
v -0.3 0.1 0.5
v -0.2 0.1 0.5
v -0.1 0.1 0.5
v 0.1 0.1 0.5
v 0.2 0.1 0.5
v 0.3 0.1 0.5
v 0.4 0.1 0.5
v 0.5 0.1 0.5
v 0.6 0.1 0.5
v -0.6 0.1 0.4
v -0.5 0.1 0.4
v 0.5 0.1 0.4
v 0.6 0.1 0.4
v -0.6 0.1 0.3
v -0.5 0.1 0.3
v 0.5 0.1 0.3
v 0.6 0.1 0.3
v -0.6 0.1 0.2
v -0.5 0.1 0.2
v 0.5 0.1 0.2
v 0.6 0.1 0.2
v -0.6 0.1 0.1
v -0.5 0.1 0.1
v 0.5 0.1 0.1
v 0.6 0.1 0.1
v 0.5 0.1 5.96046e-08
v 0.6 0.1 5.96046e-08
v 0.5 0.1 -0.1
v 0.6 0.1 -0.1
v -0.6 0.1 -0.2
v -0.5 0.1 -0.2
v -0.6 0.1 -0.3
v -0.5 0.1 -0.3
v 0.5 0.1 -0.3
v 0.6 0.1 -0.3
v -0.6 0.1 -0.4
v -0.5 0.1 -0.4
v 0.5 0.1 -0.4
v 0.6 0.1 -0.4
v -0.6 0.1 -0.5
v -0.5 0.1 -0.5
v -0.4 0.1 -0.5
v -0.3 0.1 -0.5
v -0.2 0.1 -0.5
v -0.1 0.1 -0.5
v -5.96046e-08 0.1 -0.5
v 0.1 0.1 -0.5
v 0.2 0.1 -0.5
v 0.3 0.1 -0.5
v 0.4 0.1 -0.5
v 0.5 0.1 -0.5
v 0.6 0.1 -0.5
v -0.6 0.1 -0.6
v -0.5 0.1 -0.6
v -0.4 0.1 -0.6
v -0.3 0.1 -0.6
v -0.2 0.1 -0.6
v -0.1 0.1 -0.6
v -5.96046e-08 0.1 -0.6
v 0.1 0.1 -0.6
v 0.2 0.1 -0.6
v 0.3 0.1 -0.6
v 0.4 0.1 -0.6
v 0.5 0.1 -0.6
v 0.6 0.1 -0.6

# faces
f 12/2/1 2/2/1 1/2/1
f 13/7/1 3/7/1 2/7/1
f 13/2/1 2/2/1 12/2/1
f 14/9/1 4/9/1 3/9/1
f 14/7/1 3/7/1 13/7/1
f 15/2/1 5/2/1 4/2/1
f 15/9/1 4/9/1 14/9/1
f 16/8/1 6/8/1 5/8/1
f 16/2/1 5/2/1 15/2/1
f 17/3/1 7/3/1 6/3/1
f 17/8/1 6/8/1 16/8/1
f 18/11/1 8/11/1 7/11/1
f 18/3/1 7/3/1 17/3/1
f 19/1/1 9/1/1 8/1/1
f 19/11/1 8/11/1 18/11/1
f 20/9/1 10/9/1 9/9/1
f 20/1/1 9/1/1 19/1/1
f 21/4/1 11/4/1 10/4/1
f 21/9/1 10/9/1 20/9/1
f 22/4/1 11/4/1 21/4/1
f 23/8/2 24/8/2 35/8/2
f 24/3/2 25/3/2 36/3/2
f 35/8/2 24/8/2 36/8/2
f 25/2/2 26/2/2 37/2/2
f 36/3/2 25/3/2 37/3/2
f 26/3/2 27/3/2 38/3/2
f 37/2/2 26/2/2 38/2/2
f 27/1/2 28/1/2 39/1/2
f 38/3/2 27/3/2 39/3/2
f 28/4/2 29/4/2 40/4/2
f 39/1/2 28/1/2 40/1/2
f 29/2/2 30/2/2 41/2/2
f 40/4/2 29/4/2 41/4/2
f 30/6/2 31/6/2 42/6/2
f 41/2/2 30/2/2 42/2/2
f 31/8/2 32/8/2 43/8/2
f 42/6/2 31/6/2 43/6/2
f 32/11/2 33/11/2 44/11/2
f 43/8/2 32/8/2 44/8/2
f 33/1/2 34/1/2 45/1/2
f 44/11/2 33/11/2 45/11/2
f 45/1/2 34/1/2 46/1/2
f 49/2/3 48/2/3 47/2/3
f 50/2/3 48/2/3 49/2/3
f 51/9/3 50/9/3 49/9/3
f 52/9/3 50/9/3 51/9/3
f 53/7/3 52/7/3 51/7/3
f 54/7/3 52/7/3 53/7/3
f 55/11/3 54/11/3 53/11/3
f 56/11/3 54/11/3 55/11/3
f 57/4/3 56/4/3 55/4/3
f 58/4/3 56/4/3 57/4/3
f 59/10/3 58/10/3 57/10/3
f 60/10/3 58/10/3 59/10/3
f 61/5/3 60/5/3 59/5/3
f 62/5/3 60/5/3 61/5/3
f 63/1/3 62/1/3 61/1/3
f 64/1/3 62/1/3 63/1/3
f 65/2/3 64/2/3 63/2/3
f 66/2/3 64/2/3 65/2/3
f 67/7/3 66/7/3 65/7/3
f 68/7/3 66/7/3 67/7/3
f 69/8/3 68/8/3 67/8/3
f 70/8/3 68/8/3 69/8/3
f 71/4/4 72/4/4 73/4/4
f 73/4/4 72/4/4 74/4/4
f 73/5/4 74/5/4 75/5/4
f 75/5/4 74/5/4 76/5/4
f 75/3/4 76/3/4 77/3/4
f 77/3/4 76/3/4 78/3/4
f 77/6/4 78/6/4 79/6/4
f 79/6/4 78/6/4 80/6/4
f 79/10/4 80/10/4 81/10/4
f 81/10/4 80/10/4 82/10/4
f 81/6/4 82/6/4 83/6/4
f 83/6/4 82/6/4 84/6/4
f 83/2/4 84/2/4 85/2/4
f 85/2/4 84/2/4 86/2/4
f 85/5/4 86/5/4 87/5/4
f 87/5/4 86/5/4 88/5/4
f 87/11/4 88/11/4 89/11/4
f 89/11/4 88/11/4 90/11/4
f 89/3/4 90/3/4 91/3/4
f 91/3/4 90/3/4 92/3/4
f 91/4/4 92/4/4 93/4/4
f 93/4/4 92/4/4 94/4/4
f 93/1/4 94/1/4 95/1/4
f 95/1/4 94/1/4 96/1/4
f 109/2/5 98/2/5 97/2/5
f 110/9/5 99/9/5 98/9/5
f 110/2/5 98/2/5 109/2/5
f 111/7/5 100/7/5 99/7/5
f 111/9/5 99/9/5 110/9/5
f 112/11/5 101/11/5 100/11/5
f 112/7/5 100/7/5 111/7/5
f 113/4/5 102/4/5 101/4/5
f 113/11/5 101/11/5 112/11/5
f 114/10/5 103/10/5 102/10/5
f 114/4/5 102/4/5 113/4/5
f 115/5/5 104/5/5 103/5/5
f 115/10/5 103/10/5 114/10/5
f 116/1/5 105/1/5 104/1/5
f 116/5/5 104/5/5 115/5/5
f 117/2/5 106/2/5 105/2/5
f 117/1/5 105/1/5 116/1/5
f 118/7/5 107/7/5 106/7/5
f 118/2/5 106/2/5 117/2/5
f 119/8/5 108/8/5 107/8/5
f 119/7/5 107/7/5 118/7/5
f 120/8/5 108/8/5 119/8/5
f 121/7/5 110/7/5 109/7/5
f 122/12/5 118/12/5 117/12/5
f 122/7/5 110/7/5 121/7/5
f 122/12/5 111/12/5 110/12/5
f 122/12/5 112/12/5 111/12/5
f 122/12/5 119/12/5 118/12/5
f 122/12/5 117/12/5 116/12/5
f 122/12/5 116/12/5 115/12/5
f 122/12/5 115/12/5 114/12/5
f 122/12/5 114/12/5 113/12/5
f 122/12/5 113/12/5 112/12/5
f 123/3/5 120/3/5 119/3/5
f 123/12/5 119/12/5 122/12/5
f 124/3/5 120/3/5 123/3/5
f 125/9/5 122/9/5 121/9/5
f 126/12/5 123/12/5 122/12/5
f 126/9/5 122/9/5 125/9/5
f 127/2/5 124/2/5 123/2/5
f 127/12/5 123/12/5 126/12/5
f 128/2/5 124/2/5 127/2/5
f 129/2/5 126/2/5 125/2/5
f 130/12/5 127/12/5 126/12/5
f 130/2/5 126/2/5 129/2/5
f 131/3/5 128/3/5 127/3/5
f 131/12/5 127/12/5 130/12/5
f 132/3/5 128/3/5 131/3/5
f 133/8/5 130/8/5 129/8/5
f 134/12/5 131/12/5 130/12/5
f 134/8/5 130/8/5 133/8/5
f 135/1/5 132/1/5 131/1/5
f 135/12/5 131/12/5 134/12/5
f 136/1/5 132/1/5 135/1/5
f 137/12/5 135/12/5 134/12/5
f 137/4/5 136/4/5 135/4/5
f 138/4/5 136/4/5 137/4/5
f 139/12/5 137/12/5 134/12/5
f 139/2/5 138/2/5 137/2/5
f 140/2/5 138/2/5 139/2/5
f 141/3/5 134/3/5 133/3/5
f 142/12/5 139/12/5 134/12/5
f 142/3/5 134/3/5 141/3/5
f 143/11/5 142/11/5 141/11/5
f 144/12/5 139/12/5 142/12/5
f 144/11/5 142/11/5 143/11/5
f 145/6/5 140/6/5 139/6/5
f 145/12/5 139/12/5 144/12/5
f 146/6/5 140/6/5 145/6/5
f 147/1/5 144/1/5 143/1/5
f 148/12/5 145/12/5 144/12/5
f 148/1/5 144/1/5 147/1/5
f 149/8/5 146/8/5 145/8/5
f 149/12/5 145/12/5 148/12/5
f 150/8/5 146/8/5 149/8/5
f 151/9/5 148/9/5 147/9/5
f 152/12/5 149/12/5 148/12/5
f 152/9/5 148/9/5 151/9/5
f 153/12/5 149/12/5 152/12/5
f 154/12/5 149/12/5 153/12/5
f 155/12/5 149/12/5 154/12/5
f 156/12/5 149/12/5 155/12/5
f 157/12/5 149/12/5 156/12/5
f 158/12/5 149/12/5 157/12/5
f 159/12/5 149/12/5 158/12/5
f 160/12/5 149/12/5 159/12/5
f 161/12/5 149/12/5 160/12/5
f 162/11/5 150/11/5 149/11/5
f 162/12/5 149/12/5 161/12/5
f 163/11/5 150/11/5 162/11/5
f 164/4/5 152/4/5 151/4/5
f 165/5/5 153/5/5 152/5/5
f 165/4/5 152/4/5 164/4/5
f 166/3/5 154/3/5 153/3/5
f 166/5/5 153/5/5 165/5/5
f 167/6/5 155/6/5 154/6/5
f 167/3/5 154/3/5 166/3/5
f 168/10/5 156/10/5 155/10/5
f 168/6/5 155/6/5 167/6/5
f 169/6/5 157/6/5 156/6/5
f 169/10/5 156/10/5 168/10/5
f 170/2/5 158/2/5 157/2/5
f 170/6/5 157/6/5 169/6/5
f 171/5/5 159/5/5 158/5/5
f 171/2/5 158/2/5 170/2/5
f 172/11/5 160/11/5 159/11/5
f 172/5/5 159/5/5 171/5/5
f 173/3/5 161/3/5 160/3/5
f 173/11/5 160/11/5 172/11/5
f 174/4/5 162/4/5 161/4/5
f 174/3/5 161/3/5 173/3/5
f 175/1/5 163/1/5 162/1/5
f 175/4/5 162/4/5 174/4/5
f 176/1/5 163/1/5 175/1/5
f 177/2/6 178/2/6 189/2/6
f 178/9/6 179/9/6 190/9/6
f 189/2/6 178/2/6 190/2/6
f 179/7/6 180/7/6 191/7/6
f 190/9/6 179/9/6 191/9/6
f 180/11/6 181/11/6 192/11/6
f 191/7/6 180/7/6 192/7/6
f 181/4/6 182/4/6 193/4/6
f 192/11/6 181/11/6 193/11/6
f 182/10/6 183/10/6 194/10/6
f 193/4/6 182/4/6 194/4/6
f 183/5/6 184/5/6 195/5/6
f 194/10/6 183/10/6 195/10/6
f 184/1/6 185/1/6 196/1/6
f 195/5/6 184/5/6 196/5/6
f 185/2/6 186/2/6 197/2/6
f 196/1/6 185/1/6 197/1/6
f 186/7/6 187/7/6 198/7/6
f 197/2/6 186/2/6 198/2/6
f 187/8/6 188/8/6 199/8/6
f 198/7/6 187/7/6 199/7/6
f 199/8/6 188/8/6 200/8/6
f 189/7/6 190/7/6 201/7/6
f 197/12/6 198/12/6 202/12/6
f 201/7/6 190/7/6 202/7/6
f 190/12/6 191/12/6 202/12/6
f 191/12/6 192/12/6 202/12/6
f 198/12/6 199/12/6 202/12/6
f 196/12/6 197/12/6 202/12/6
f 195/12/6 196/12/6 202/12/6
f 194/12/6 195/12/6 202/12/6
f 193/12/6 194/12/6 202/12/6
f 192/12/6 193/12/6 202/12/6
f 199/3/6 200/3/6 203/3/6
f 202/12/6 199/12/6 203/12/6
f 203/3/6 200/3/6 204/3/6
f 201/9/6 202/9/6 205/9/6
f 202/12/6 203/12/6 206/12/6
f 205/9/6 202/9/6 206/9/6
f 203/2/6 204/2/6 207/2/6
f 206/12/6 203/12/6 207/12/6
f 207/2/6 204/2/6 208/2/6
f 205/2/6 206/2/6 209/2/6
f 206/12/6 207/12/6 210/12/6
f 209/2/6 206/2/6 210/2/6
f 207/3/6 208/3/6 211/3/6
f 210/12/6 207/12/6 211/12/6
f 211/3/6 208/3/6 212/3/6
f 209/8/6 210/8/6 213/8/6
f 210/12/6 211/12/6 214/12/6
f 213/8/6 210/8/6 214/8/6
f 211/1/6 212/1/6 215/1/6
f 214/12/6 211/12/6 215/12/6
f 215/1/6 212/1/6 216/1/6
f 214/12/6 215/12/6 217/12/6
f 215/4/6 216/4/6 217/4/6
f 217/4/6 216/4/6 218/4/6
f 214/12/6 217/12/6 219/12/6
f 217/2/6 218/2/6 219/2/6
f 219/2/6 218/2/6 220/2/6
f 213/3/6 214/3/6 221/3/6
f 214/12/6 219/12/6 222/12/6
f 221/3/6 214/3/6 222/3/6
f 221/11/6 222/11/6 223/11/6
f 222/12/6 219/12/6 224/12/6
f 223/11/6 222/11/6 224/11/6
f 219/6/6 220/6/6 225/6/6
f 224/12/6 219/12/6 225/12/6
f 225/6/6 220/6/6 226/6/6
f 223/1/6 224/1/6 227/1/6
f 224/12/6 225/12/6 228/12/6
f 227/1/6 224/1/6 228/1/6
f 225/8/6 226/8/6 229/8/6
f 228/12/6 225/12/6 229/12/6
f 229/8/6 226/8/6 230/8/6
f 227/9/6 228/9/6 231/9/6
f 228/12/6 229/12/6 232/12/6
f 231/9/6 228/9/6 232/9/6
f 232/12/6 229/12/6 233/12/6
f 233/12/6 229/12/6 234/12/6
f 234/12/6 229/12/6 235/12/6
f 235/12/6 229/12/6 236/12/6
f 236/12/6 229/12/6 237/12/6
f 237/12/6 229/12/6 238/12/6
f 238/12/6 229/12/6 239/12/6
f 239/12/6 229/12/6 240/12/6
f 240/12/6 229/12/6 241/12/6
f 229/11/6 230/11/6 242/11/6
f 241/12/6 229/12/6 242/12/6
f 242/11/6 230/11/6 243/11/6
f 231/4/6 232/4/6 244/4/6
f 232/5/6 233/5/6 245/5/6
f 244/4/6 232/4/6 245/4/6
f 233/3/6 234/3/6 246/3/6
f 245/5/6 233/5/6 246/5/6
f 234/6/6 235/6/6 247/6/6
f 246/3/6 234/3/6 247/3/6
f 235/10/6 236/10/6 248/10/6
f 247/6/6 235/6/6 248/6/6
f 236/6/6 237/6/6 249/6/6
f 248/10/6 236/10/6 249/10/6
f 237/2/6 238/2/6 250/2/6
f 249/6/6 237/6/6 250/6/6
f 238/5/6 239/5/6 251/5/6
f 250/2/6 238/2/6 251/2/6
f 239/11/6 240/11/6 252/11/6
f 251/5/6 239/5/6 252/5/6
f 240/3/6 241/3/6 253/3/6
f 252/11/6 240/11/6 253/11/6
f 241/4/6 242/4/6 254/4/6
f 253/3/6 241/3/6 254/3/6
f 242/1/6 243/1/6 255/1/6
f 254/4/6 242/4/6 255/4/6
f 255/1/6 243/1/6 256/1/6
