# MagicaVoxel @ Ephtracy

# group
o 

# material
mtllib Key.mtl
usemtl palette

# normals
vn -1 0 0
vn 1 0 0
vn 0 0 1
vn 0 0 -1
vn 0 -1 0
vn 0 1 0

# texcoords
vt 0.00976562 0.5
vt 0.0136719 0.5
vt 0.0175781 0.5

# verts
v -0.4 0 0
v -0.4 0 -0.1
v -0.4 0.1 0
v -0.4 0.1 -0.1
v -0.4 0.2 0
v -0.4 0.2 -0.1
v -0.2 0 0
v -0.2 0 -0.1
v -0.2 0.1 0
v -0.2 0.1 -0.1
v 0.1 0 0
v 0.1 0 -0.1
v 0.1 0.1 0
v 0.1 0.1 -0.1
v 0.1 0.2 0
v 0.1 0.2 -0.1
v 0.1 0.3 0
v 0.1 0.3 -0.1
v 0.3 0.1 0
v 0.3 0.1 -0.1
v 0.3 0.2 0
v 0.3 0.2 -0.1
v -0.3 0 0
v -0.3 0 -0.1
v -0.3 0.1 0
v -0.3 0.1 -0.1
v -0.1 0 0
v -0.1 0 -0.1
v -0.1 0.1 0
v -0.1 0.1 -0.1
v 0.2 0.1 0
v 0.2 0.1 -0.1
v 0.2 0.2 0
v 0.2 0.2 -0.1
v 0.4 0 0
v 0.4 0 -0.1
v 0.4 0.1 0
v 0.4 0.1 -0.1
v 0.4 0.2 0
v 0.4 0.2 -0.1
v 0.4 0.3 0
v 0.4 0.3 -0.1
v -0.4 0 0
v -0.4 0.1 0
v -0.4 0.2 0
v -0.3 0 0
v -0.3 0.1 0
v -0.3 0.2 0
v -0.2 0 0
v -0.2 0.1 0
v -0.2 0.2 0
v -0.1 0 0
v -0.1 0.1 0
v -0.1 0.2 0
v 0.1 0 0
v 0.1 0.1 0
v 0.1 0.2 0
v 0.1 0.3 0
v 0.2 0 0
v 0.2 0.1 0
v 0.2 0.2 0
v 0.3 0 0
v 0.3 0.1 0
v 0.3 0.2 0
v 0.3 0.3 0
v 0.4 0 0
v 0.4 0.1 0
v 0.4 0.2 0
v 0.4 0.3 0
v -0.4 0 -0.1
v -0.4 0.1 -0.1
v -0.4 0.2 -0.1
v -0.3 0 -0.1
v -0.3 0.1 -0.1
v -0.3 0.2 -0.1
v -0.2 0 -0.1
v -0.2 0.1 -0.1
v -0.2 0.2 -0.1
v -0.1 0 -0.1
v -0.1 0.1 -0.1
v -0.1 0.2 -0.1
v 0.1 0 -0.1
v 0.1 0.1 -0.1
v 0.1 0.2 -0.1
v 0.1 0.3 -0.1
v 0.2 0 -0.1
v 0.2 0.1 -0.1
v 0.2 0.2 -0.1
v 0.3 0 -0.1
v 0.3 0.1 -0.1
v 0.3 0.2 -0.1
v 0.3 0.3 -0.1
v 0.4 0 -0.1
v 0.4 0.1 -0.1
v 0.4 0.2 -0.1
v 0.4 0.3 -0.1
v -0.4 0 0
v -0.3 0 0
v -0.2 0 0
v -0.1 0 0
v 0.1 0 0
v 0.2 0 0
v 0.3 0 0
v 0.4 0 0
v -0.4 0 -0.1
v -0.3 0 -0.1
v -0.2 0 -0.1
v -0.1 0 -0.1
v 0.1 0 -0.1
v 0.2 0 -0.1
v 0.3 0 -0.1
v 0.4 0 -0.1
v -0.3 0.1 0
v -0.2 0.1 0
v -0.1 0.1 0
v 0.1 0.1 0
v -0.3 0.1 -0.1
v -0.2 0.1 -0.1
v -0.1 0.1 -0.1
v 0.1 0.1 -0.1
v 0.2 0.2 0
v 0.3 0.2 0
v 0.2 0.2 -0.1
v 0.3 0.2 -0.1
v 0.2 0.1 0
v 0.3 0.1 0
v 0.2 0.1 -0.1
v 0.3 0.1 -0.1
v -0.4 0.2 0
v -0.3 0.2 0
v -0.2 0.2 0
v -0.1 0.2 0
v 0.1 0.2 0
v -0.4 0.2 -0.1
v -0.3 0.2 -0.1
v -0.2 0.2 -0.1
v -0.1 0.2 -0.1
v 0.1 0.2 -0.1
v 0.1 0.3 0
v 0.3 0.3 0
v 0.4 0.3 0
v 0.1 0.3 -0.1
v 0.3 0.3 -0.1
v 0.4 0.3 -0.1

# faces
f 3/2/1 2/2/1 1/2/1
f 4/2/1 2/2/1 3/2/1
f 5/1/1 4/1/1 3/1/1
f 6/1/1 4/1/1 5/1/1
f 9/3/1 8/3/1 7/3/1
f 10/3/1 8/3/1 9/3/1
f 13/1/1 12/1/1 11/1/1
f 14/1/1 12/1/1 13/1/1
f 17/2/1 16/2/1 15/2/1
f 18/2/1 16/2/1 17/2/1
f 21/2/1 20/2/1 19/2/1
f 22/2/1 20/2/1 21/2/1
f 23/2/2 24/2/2 25/2/2
f 25/2/2 24/2/2 26/2/2
f 27/3/2 28/3/2 29/3/2
f 29/3/2 28/3/2 30/3/2
f 31/1/2 32/1/2 33/1/2
f 33/1/2 32/1/2 34/1/2
f 35/1/2 36/1/2 37/1/2
f 37/1/2 36/1/2 38/1/2
f 37/2/2 38/2/2 39/2/2
f 39/2/2 38/2/2 40/2/2
f 39/1/2 40/1/2 41/1/2
f 41/1/2 40/1/2 42/1/2
f 46/2/3 44/2/3 43/2/3
f 47/1/3 45/1/3 44/1/3
f 47/2/3 44/2/3 46/2/3
f 48/1/3 45/1/3 47/1/3
f 50/3/3 48/3/3 47/3/3
f 51/3/3 48/3/3 50/3/3
f 52/3/3 50/3/3 49/3/3
f 53/2/3 51/2/3 50/2/3
f 53/3/3 50/3/3 52/3/3
f 54/2/3 51/2/3 53/2/3
f 56/1/3 54/1/3 53/1/3
f 57/1/3 54/1/3 56/1/3
f 59/1/3 57/1/3 56/1/3
f 59/1/3 56/1/3 55/1/3
f 60/1/3 57/1/3 59/1/3
f 61/2/3 58/2/3 57/2/3
f 61/1/3 57/1/3 60/1/3
f 62/3/3 60/3/3 59/3/3
f 63/3/3 60/3/3 62/3/3
f 64/2/3 58/2/3 61/2/3
f 65/2/3 58/2/3 64/2/3
f 66/1/3 63/1/3 62/1/3
f 67/2/3 64/2/3 63/2/3
f 67/1/3 63/1/3 66/1/3
f 68/1/3 65/1/3 64/1/3
f 68/2/3 64/2/3 67/2/3
f 69/1/3 65/1/3 68/1/3
f 70/2/4 71/2/4 73/2/4
f 71/1/4 72/1/4 74/1/4
f 73/2/4 71/2/4 74/2/4
f 74/1/4 72/1/4 75/1/4
f 74/3/4 75/3/4 77/3/4
f 77/3/4 75/3/4 78/3/4
f 76/3/4 77/3/4 79/3/4
f 77/2/4 78/2/4 80/2/4
f 79/3/4 77/3/4 80/3/4
f 80/2/4 78/2/4 81/2/4
f 80/1/4 81/1/4 83/1/4
f 83/1/4 81/1/4 84/1/4
f 83/1/4 84/1/4 86/1/4
f 82/1/4 83/1/4 86/1/4
f 86/1/4 84/1/4 87/1/4
f 84/2/4 85/2/4 88/2/4
f 87/1/4 84/1/4 88/1/4
f 86/3/4 87/3/4 89/3/4
f 89/3/4 87/3/4 90/3/4
f 88/2/4 85/2/4 91/2/4
f 91/2/4 85/2/4 92/2/4
f 89/1/4 90/1/4 93/1/4
f 90/2/4 91/2/4 94/2/4
f 93/1/4 90/1/4 94/1/4
f 91/1/4 92/1/4 95/1/4
f 94/2/4 91/2/4 95/2/4
f 95/1/4 92/1/4 96/1/4
f 105/2/5 98/2/5 97/2/5
f 106/2/5 98/2/5 105/2/5
f 107/3/5 100/3/5 99/3/5
f 108/3/5 100/3/5 107/3/5
f 109/1/5 102/1/5 101/1/5
f 110/3/5 103/3/5 102/3/5
f 110/1/5 102/1/5 109/1/5
f 111/1/5 104/1/5 103/1/5
f 111/3/5 103/3/5 110/3/5
f 112/1/5 104/1/5 111/1/5
f 117/3/5 114/3/5 113/3/5
f 118/3/5 114/3/5 117/3/5
f 119/1/5 116/1/5 115/1/5
f 120/1/5 116/1/5 119/1/5
f 123/2/5 122/2/5 121/2/5
f 124/2/5 122/2/5 123/2/5
f 125/3/6 126/3/6 127/3/6
f 127/3/6 126/3/6 128/3/6
f 129/1/6 130/1/6 134/1/6
f 130/3/6 131/3/6 135/3/6
f 134/1/6 130/1/6 135/1/6
f 131/2/6 132/2/6 136/2/6
f 135/3/6 131/3/6 136/3/6
f 132/1/6 133/1/6 137/1/6
f 136/2/6 132/2/6 137/2/6
f 137/1/6 133/1/6 138/1/6
f 139/2/6 140/2/6 142/2/6
f 140/1/6 141/1/6 143/1/6
f 142/2/6 140/2/6 143/2/6
f 143/1/6 141/1/6 144/1/6
