# MagicaVoxel @ Ephtracy

# group
o 

# material
mtllib torch.mtl
usemtl palette

# normals
vn -1 0 0
vn 1 0 0
vn 0 0 1
vn 0 0 -1
vn 0 -1 0
vn 0 1 0

# texcoords
vt 0.501953 0.5
vt 0.912109 0.5

# verts
v -0.1 0 0.1
v -0.1 0 -0.1
v -0.1 0.4 0.1
v -0.1 0.4 -0.1
v -0.1 0.6 0.1
v -0.1 0.6 -0.1
v 0 0.1 -0.1
v 0 0.1 -0.2
v 0 0.3 -0.1
v 0 0.3 -0.2
v 0.1 0 0.1
v 0.1 0 -0.1
v 0.1 0.1 0
v 0.1 0.1 -0.1
v 0.1 0.3 0
v 0.1 0.3 -0.1
v 0.1 0.4 0.1
v 0.1 0.4 -0.1
v 0.1 0.6 0.1
v 0.1 0.6 -0.1
v 0.2 0.1 0
v 0.2 0.1 -0.2
v 0.2 0.3 0
v 0.2 0.3 -0.2
v -0.1 0 0.1
v -0.1 0.4 0.1
v -0.1 0.6 0.1
v 0.1 0 0.1
v 0.1 0.4 0.1
v 0.1 0.6 0.1
v 0.1 0.1 0
v 0.1 0.3 0
v 0.2 0.1 0
v 0.2 0.3 0
v -0.1 0 -0.1
v -0.1 0.4 -0.1
v -0.1 0.6 -0.1
v 0 0.1 -0.1
v 0 0.3 -0.1
v 0.1 0 -0.1
v 0.1 0.1 -0.1
v 0.1 0.3 -0.1
v 0.1 0.4 -0.1
v 0.1 0.6 -0.1
v 0 0.1 -0.2
v 0 0.3 -0.2
v 0.2 0.1 -0.2
v 0.2 0.3 -0.2
v -0.1 0 0.1
v 0.1 0 0.1
v -0.1 0 -0.1
v 0.1 0 -0.1
v 0.1 0.1 0
v 0.2 0.1 0
v 0 0.1 -0.1
v 0.1 0.1 -0.1
v 0 0.1 -0.2
v 0.2 0.1 -0.2
v 0.1 0.3 0
v 0.2 0.3 0
v 0 0.3 -0.1
v 0.1 0.3 -0.1
v 0 0.3 -0.2
v 0.2 0.3 -0.2
v -0.1 0.6 0.1
v 0.1 0.6 0.1
v -0.1 0.6 -0.1
v 0.1 0.6 -0.1

# faces
f 3/1/1 2/1/1 1/1/1
f 4/1/1 2/1/1 3/1/1
f 5/2/1 4/2/1 3/2/1
f 6/2/1 4/2/1 5/2/1
f 9/1/1 8/1/1 7/1/1
f 10/1/1 8/1/1 9/1/1
f 11/1/2 12/1/2 13/1/2
f 13/1/2 12/1/2 14/1/2
f 11/1/2 13/1/2 15/1/2
f 11/1/2 15/1/2 17/1/2
f 15/1/2 16/1/2 17/1/2
f 17/1/2 16/1/2 18/1/2
f 17/2/2 18/2/2 19/2/2
f 19/2/2 18/2/2 20/2/2
f 21/1/2 22/1/2 23/1/2
f 23/1/2 22/1/2 24/1/2
f 28/1/3 26/1/3 25/1/3
f 29/2/3 27/2/3 26/2/3
f 29/1/3 26/1/3 28/1/3
f 30/2/3 27/2/3 29/2/3
f 33/1/3 32/1/3 31/1/3
f 34/1/3 32/1/3 33/1/3
f 35/1/4 36/1/4 38/1/4
f 38/1/4 36/1/4 39/1/4
f 35/1/4 38/1/4 40/1/4
f 40/1/4 38/1/4 41/1/4
f 39/1/4 36/1/4 42/1/4
f 36/2/4 37/2/4 43/2/4
f 42/1/4 36/1/4 43/1/4
f 43/2/4 37/2/4 44/2/4
f 45/1/4 46/1/4 47/1/4
f 47/1/4 46/1/4 48/1/4
f 51/1/5 50/1/5 49/1/5
f 52/1/5 50/1/5 51/1/5
f 56/1/5 54/1/5 53/1/5
f 57/1/5 56/1/5 55/1/5
f 58/1/5 54/1/5 56/1/5
f 58/1/5 56/1/5 57/1/5
f 59/1/6 60/1/6 62/1/6
f 61/1/6 62/1/6 63/1/6
f 62/1/6 60/1/6 64/1/6
f 63/1/6 62/1/6 64/1/6
f 65/2/6 66/2/6 67/2/6
f 67/2/6 66/2/6 68/2/6
